<svg width="64" height="64" viewBox="0 0 64 64" fill="none" xmlns="http://www.w3.org/2000/svg">
<path d="M53.9811 51.4607H51.4773V34.3682H42.6098V26.4007L32.8111 21.127L32.8073 21.1295L32.8036 21.127L23.0048 26.4007V34.3682H14.1373V51.4607H11.6336C11.4198 51.4607 11.2461 51.6345 11.2461 51.8482V52.422C11.2461 52.6357 11.4198 52.8095 11.6336 52.8095H26.0598L17.9698 59.737C17.7211 59.9507 17.6311 60.2957 17.7448 60.6032C17.8586 60.9107 18.1511 61.1145 18.4798 61.1145H32.3098C32.5661 61.1145 32.8048 60.9894 32.9523 60.7794L38.5173 52.8095H53.9848C54.1986 52.8095 54.3723 52.6357 54.3723 52.422V51.8482C54.3723 51.6345 54.1986 51.4607 53.9848 51.4607H53.9811ZM32.8061 27.9145C34.3148 27.9145 35.5373 29.137 35.5373 30.6457C35.5373 32.1545 34.3148 33.377 32.8061 33.377C31.2973 33.377 30.0748 32.1545 30.0748 30.6457C30.0748 29.137 31.2973 27.9145 32.8061 27.9145ZM28.4198 42.8707C28.4198 40.4482 30.3836 38.4857 32.8048 38.4857C35.2261 38.4857 37.1898 40.4495 37.1898 42.8707V51.2082H28.4186V42.8707H28.4198ZM23.3273 42.9032C23.3273 43.2495 23.0473 43.5295 22.7011 43.5295H19.1023C18.7561 43.5295 18.4761 43.2495 18.4761 42.9032V39.3045C18.4761 38.9582 18.7561 38.6782 19.1023 38.6782H22.7011C23.0473 38.6782 23.3273 38.9582 23.3273 39.3045V42.9032ZM47.1361 42.9032C47.1361 43.2495 46.8561 43.5295 46.5098 43.5295H42.9111C42.5648 43.5295 42.2848 43.2495 42.2848 42.9032V39.3045C42.2848 38.9582 42.5648 38.6782 42.9111 38.6782H46.5098C46.8561 38.6782 47.1361 38.9582 47.1361 39.3045V42.9032Z" fill="#803130"/>
<path d="M40.3823 22.1473C43.1598 22.1473 45.411 19.8961 45.411 17.1186C45.411 14.3411 43.1598 12.0898 40.3823 12.0898C37.6048 12.0898 35.3535 14.3411 35.3535 17.1186C35.3535 19.8961 37.6048 22.1473 40.3823 22.1473Z" fill="#803130"/>
<path d="M45.3928 12.8936C45.5928 12.8936 45.7941 12.8173 45.9466 12.6636L48.0816 10.5286C48.3878 10.2223 48.3878 9.72734 48.0816 9.42109C47.7766 9.11484 47.2803 9.11484 46.9741 9.42109L44.8391 11.5561C44.5328 11.8623 44.5328 12.3573 44.8391 12.6636C44.9916 12.8161 45.1928 12.8936 45.3928 12.8936Z" fill="#803130"/>
<path d="M40.3814 10.8189C40.8139 10.8189 41.1652 10.4689 41.1652 10.0352V7.0152C41.1652 6.5827 40.8152 6.23145 40.3814 6.23145C39.9477 6.23145 39.5977 6.58145 39.5977 7.0152V10.0352C39.5977 10.4677 39.9477 10.8189 40.3814 10.8189Z" fill="#803130"/>
<path d="M34.8178 12.6636C34.9703 12.8161 35.1716 12.8936 35.3716 12.8936C35.5716 12.8936 35.7728 12.8173 35.9253 12.6636C36.2316 12.3573 36.2316 11.8623 35.9253 11.5561L33.7903 9.42109C33.4853 9.11484 32.9891 9.11484 32.6828 9.42109C32.3766 9.72734 32.3766 10.2223 32.6828 10.5286L34.8178 12.6636Z" fill="#803130"/>
<path d="M44.8391 21.5754C44.5328 21.8816 44.5328 22.3766 44.8391 22.6829L46.9741 24.8179C47.1266 24.9704 47.3278 25.0479 47.5278 25.0479C47.7278 25.0479 47.9291 24.9716 48.0816 24.8179C48.3878 24.5116 48.3878 24.0166 48.0816 23.7104L45.9466 21.5754C45.6416 21.2691 45.1453 21.2691 44.8391 21.5754Z" fill="#803130"/>
<path d="M30.2779 17.9025H33.2979C33.7304 17.9025 34.0816 17.5525 34.0816 17.1187C34.0816 16.685 33.7316 16.335 33.2979 16.335H30.2779C29.8454 16.335 29.4941 16.685 29.4941 17.1187C29.4941 17.5525 29.8441 17.9025 30.2779 17.9025Z" fill="#803130"/>
<path d="M46.6836 17.1197C46.6836 17.5522 47.0336 17.9034 47.4673 17.9034H50.4873C50.9198 17.9034 51.2711 17.5534 51.2711 17.1197C51.2711 16.6859 50.9211 16.3359 50.4873 16.3359H47.4673C47.0348 16.3359 46.6836 16.6859 46.6836 17.1197Z" fill="#803130"/>
</svg>
