<svg width="64" height="64" viewBox="0 0 64 64" fill="none" xmlns="http://www.w3.org/2000/svg">
<path d="M28.3362 43.1755C28.6412 43.478 29.0387 43.628 29.4362 43.628C29.8337 43.628 30.2275 43.4793 30.5312 43.1805L40.1462 33.7405C40.7625 33.1355 40.7712 32.1468 40.1662 31.5305C39.5612 30.9143 38.5725 30.9055 37.9562 31.5105L29.4412 39.8705L25.92 36.3793C25.3075 35.7718 24.3175 35.7755 23.71 36.388C23.1025 37.0005 23.1062 37.9905 23.7187 38.598L28.3337 43.1755H28.3362Z" fill="#803130"/>
<path d="M23.5633 25.1065C24.5195 25.1065 25.2945 24.3315 25.2945 23.3752V17.7215C25.2945 16.7652 24.5195 15.9902 23.5633 15.9902C22.607 15.9902 21.832 16.7652 21.832 17.7215V23.3752C21.832 24.3315 22.607 25.1065 23.5633 25.1065Z" fill="#803130"/>
<path d="M44.0249 20.043H41.1887V23.3767C41.1887 24.6755 40.1324 25.733 38.8324 25.733C37.5324 25.733 36.4762 24.6767 36.4762 23.3767V20.043H25.9187V23.3767C25.9187 24.6755 24.8624 25.733 23.5624 25.733C22.2624 25.733 21.2062 24.6767 21.2062 23.3767V20.043H18.3699C16.3099 20.043 14.6387 21.713 14.6387 23.7742V46.6205C14.6387 48.6805 16.3087 50.3517 18.3699 50.3517H44.0237C46.0837 50.3517 47.7549 48.6817 47.7549 46.6205V23.7742C47.7549 21.7142 46.0849 20.043 44.0237 20.043H44.0249ZM45.7562 46.6205C45.7562 47.5742 44.9799 48.3517 44.0249 48.3517H18.3712C17.4174 48.3517 16.6399 47.5755 16.6399 46.6205V27.813H45.7549V46.6205H45.7562Z" fill="#803130"/>
<path d="M38.8338 25.1065C39.79 25.1065 40.565 24.3315 40.565 23.3752V17.7215C40.565 16.7652 39.79 15.9902 38.8338 15.9902C37.8775 15.9902 37.1025 16.7652 37.1025 17.7215V23.3752C37.1025 24.3315 37.8775 25.1065 38.8338 25.1065Z" fill="#803130"/>
</svg>
