<svg width="64" height="64" viewBox="0 0 64 64" fill="none" xmlns="http://www.w3.org/2000/svg">
<path d="M34.1321 35.0103C34.5271 35.5803 35.3696 35.5803 35.7659 35.0103C37.6521 32.2928 39.5371 29.5753 41.4234 26.8578C42.8971 25.2766 43.7996 23.1578 43.7996 20.8266C43.7996 15.9391 39.8371 11.9766 34.9496 11.9766C30.0621 11.9766 26.0996 15.9391 26.0996 20.8266C26.0996 23.1578 27.0021 25.2766 28.4759 26.8578C30.3621 29.5753 32.2471 32.2928 34.1334 35.0103H34.1321ZM28.3196 20.8266C28.3196 17.1653 31.2871 14.1978 34.9484 14.1978C38.6096 14.1978 41.5771 17.1653 41.5771 20.8266C41.5771 24.4878 38.6096 27.4553 34.9484 27.4553C31.2871 27.4553 28.3196 24.4878 28.3196 20.8266Z" fill="#803130"/>
<path d="M47.706 27.3723C47.4873 27.2173 47.2073 27.1798 46.9548 27.2698L40.4398 29.5898L38.8273 31.9135L46.4073 29.2148V47.0035L37.9023 50.0323V33.2485L36.3823 35.4385C36.3423 35.496 36.2998 35.5498 36.2535 35.6023V50.0335L27.7473 47.0048V29.216L29.6735 29.9023L28.061 27.5785L27.1998 27.2723C27.1885 27.2685 27.1773 27.266 27.1673 27.2623C27.151 27.2573 27.1348 27.2523 27.1173 27.2473C27.1023 27.2435 27.086 27.241 27.071 27.2385C27.0548 27.236 27.0373 27.2323 27.021 27.2298C27.006 27.2285 26.9898 27.2273 26.9748 27.226C26.9573 27.226 26.941 27.2235 26.9235 27.2235C26.9085 27.2235 26.8923 27.2235 26.8773 27.226C26.8598 27.226 26.8435 27.2285 26.826 27.2298C26.811 27.231 26.796 27.2348 26.7798 27.2373C26.7635 27.2398 26.746 27.2435 26.7298 27.2473C26.7148 27.251 26.6985 27.256 26.6835 27.261C26.6723 27.2648 26.6598 27.2673 26.6485 27.271L16.4948 30.886C16.166 31.0035 15.9473 31.3135 15.9473 31.6623V51.201C15.9473 51.4685 16.0773 51.7198 16.296 51.8748C16.4373 51.9748 16.6035 52.026 16.771 52.026C16.8635 52.026 16.9573 52.0098 17.0473 51.9785L26.9248 48.461L36.8023 51.9785C36.8023 51.9785 36.811 51.981 36.816 51.9823C36.8448 51.9923 36.8748 51.9985 36.9048 52.006C36.9185 52.0085 36.9323 52.0135 36.946 52.016C36.9898 52.0235 37.0335 52.0273 37.0773 52.0273C37.121 52.0273 37.1648 52.0235 37.2085 52.016C37.2223 52.0135 37.236 52.0098 37.251 52.006C37.281 51.9998 37.3098 51.9923 37.3385 51.9835C37.3435 51.9823 37.3473 51.981 37.3523 51.9798L47.506 48.3648C47.8348 48.2473 48.0535 47.9373 48.0535 47.5885V28.0498C48.0535 27.7823 47.9235 27.531 47.7048 27.376L47.706 27.3723ZM26.0985 47.0023L17.5935 50.031V32.2423L26.0985 29.2135V47.0023Z" fill="#803130"/>
<path d="M34.0592 21.7903H35.838V24.3678H39.1655V21.0778H37.5255V18.984H38.6805L34.948 15.5615L31.2155 18.984H32.3705V21.0778H30.7305V24.3678H34.058V21.7903H34.0592ZM34.9492 18.194C35.613 18.194 36.1517 18.7328 36.1517 19.3965C36.1517 20.0603 35.6142 20.599 34.9492 20.599C34.2842 20.599 33.7467 20.0603 33.7467 19.3965C33.7467 18.7328 34.2855 18.194 34.9492 18.194Z" fill="#803130"/>
</svg>
