<svg width="64" height="64" viewBox="0 0 64 64" fill="none" xmlns="http://www.w3.org/2000/svg">
<path d="M39.0135 29.868C39.0135 29.2055 38.4548 28.668 37.7648 28.668H22.5398C21.8498 28.668 21.291 29.2055 21.291 29.868C21.291 30.5305 21.8498 31.068 22.5398 31.068H37.7648C38.4548 31.068 39.0135 30.5305 39.0135 29.868Z" fill="#803130"/>
<path d="M30.3792 34.5752H22.5417C21.8517 34.5752 21.293 35.1127 21.293 35.7752C21.293 36.4377 21.8517 36.9752 22.5417 36.9752H30.3792C31.0692 36.9752 31.628 36.4377 31.628 35.7752C31.628 35.1127 31.0692 34.5752 30.3792 34.5752Z" fill="#803130"/>
<path d="M30.3792 40.4824H22.5417C21.8517 40.4824 21.293 41.0199 21.293 41.6824C21.293 42.3449 21.8517 42.8824 22.5417 42.8824H30.3792C31.0692 42.8824 31.628 42.3449 31.628 41.6824C31.628 41.0199 31.0692 40.4824 30.3792 40.4824Z" fill="#803130"/>
<path d="M42.9091 48.8272H18.9741V24.6009L19.0416 24.5359C21.1466 24.5122 23.2503 24.4884 25.3553 24.4647C26.4641 24.4522 27.3553 23.5847 27.3553 22.5197V16.8297H42.9091V34.7534L45.4066 32.3972V15.6297C45.4066 14.9672 44.8478 14.4297 44.1578 14.4297H26.6341C26.3053 14.4297 25.9891 14.5547 25.7553 14.7772L16.8466 23.2472C16.6091 23.4722 16.4766 23.7797 16.4766 24.0997V50.0272C16.4766 50.6897 17.0353 51.2272 17.7253 51.2272H44.1578C44.8478 51.2272 45.4066 50.6897 45.4066 50.0272V39.9634L42.9091 42.3197V48.8272Z" fill="#803130"/>
<path d="M49.9995 31.8477C49.3958 31.2565 48.407 31.2477 47.792 31.8277L39.2858 39.8527L35.7695 36.5015C35.157 35.9177 34.1695 35.9227 33.562 36.5102C32.9545 37.099 32.9595 38.0477 33.5708 38.6315L38.1808 43.0252C38.4845 43.3152 38.882 43.4602 39.2795 43.4602C39.677 43.4602 40.0695 43.3165 40.3733 43.0302L49.9783 33.969C50.5933 33.389 50.602 32.439 49.9983 31.8477H49.9995Z" fill="#803130"/>
</svg>
