<svg width="64" height="64" viewBox="0 0 64 64" fill="none" xmlns="http://www.w3.org/2000/svg">
<path d="M22.4023 32.539C22.4023 33.2677 22.9598 33.859 23.6473 33.859H25.9598L27.6286 39.4402C27.7923 39.9865 28.2686 40.359 28.8098 40.3615H28.8161C29.3548 40.3615 29.8323 39.9952 29.9998 39.4515L31.7248 33.859H32.9373L34.6061 39.4402C34.7698 39.9865 35.2461 40.359 35.7873 40.3615H35.7936C36.3323 40.3615 36.8098 39.9952 36.9773 39.4515L38.7023 33.859H41.0711C41.7586 33.859 42.3161 33.2677 42.3161 32.539C42.3161 31.8102 41.7586 31.219 41.0711 31.219H39.5173L40.5211 27.9665C40.7348 27.274 40.3786 26.5277 39.7248 26.3015C39.0711 26.074 38.3673 26.4527 38.1536 27.1452L36.8973 31.219H34.7611L33.5473 27.1577C33.3836 26.6115 32.9073 26.239 32.3661 26.2365H32.3598C31.8211 26.2365 31.3436 26.6027 31.1761 27.1465L29.9198 31.2202H27.7836L26.5698 27.159C26.3623 26.464 25.6611 26.079 25.0061 26.299C24.3498 26.519 23.9873 27.2615 24.1948 27.9565L25.1711 31.2202H23.6486C22.9611 31.2202 22.4036 31.8115 22.4036 32.5402L22.4023 32.539ZM36.0823 33.859L35.8123 34.734L35.5511 33.859H36.0823ZM29.1048 33.859L28.8348 34.734L28.5736 33.859H29.1048Z" fill="#803130"/>
<path d="M39.5662 45.0213H16.5138C15.9663 42.0376 13.75 39.6888 10.9363 39.1076V25.5351C13.6625 24.9726 15.8275 22.7488 16.4575 19.8976H48.2638C48.9188 22.8576 51.2275 25.1426 54.1012 25.5926V38.1863C54.11 38.1938 54.1188 38.2001 54.1275 38.2076L56.8188 40.6663V20.6713C56.8188 18.6563 55.2725 17.0176 53.3725 17.0176H11.665C9.765 17.0176 8.21875 18.6563 8.21875 20.6713V44.2488C8.21875 46.2638 9.765 47.9026 11.665 47.9026H40.3463C39.8238 47.3251 39.5013 46.5438 39.5013 45.6826C39.5013 45.4563 39.5237 45.2363 39.5662 45.0226V45.0213Z" fill="#803130"/>
<path d="M59.2445 45.0297L53.1257 39.4385C52.6007 38.9585 51.787 39.3547 51.787 40.0885V44.096H42.527C41.702 44.096 41.0332 44.8047 41.0332 45.6797C41.0332 46.5547 41.702 47.2635 42.527 47.2635H51.787V51.271C51.787 52.006 52.6007 52.401 53.1257 51.921L59.2445 46.3297C59.6195 45.9872 59.6195 45.371 59.2445 45.0285V45.0297Z" fill="#803130"/>
</svg>
