<svg width="64" height="64" viewBox="0 0 64 64" fill="none" xmlns="http://www.w3.org/2000/svg">
<path d="M47.2106 42.7647C44.7568 42.7647 42.7618 44.7609 42.7618 47.2134C42.7618 48.0134 42.9756 48.7634 43.3456 49.4134C42.6956 49.9484 41.9731 50.3747 41.1881 50.6809C40.4281 50.9772 39.6256 51.1534 38.8056 51.2047H30.9118C29.9756 50.9409 27.9281 50.1547 26.5881 48.1084C25.9556 47.1422 25.5593 46.0072 25.4393 44.8222V35.0809C26.3793 34.9697 27.2918 34.7284 28.1631 34.3572C30.1331 33.5184 31.2793 32.2747 31.7681 31.7434C33.2418 30.1422 33.8293 28.5934 34.3968 27.0947C34.8518 25.8947 35.7981 23.3984 35.4006 20.4984C35.2531 19.4184 34.9693 18.6347 34.4818 17.9559C33.5531 16.6634 32.2193 16.1897 31.7168 16.0122C31.2531 15.8472 30.7743 15.7397 30.2868 15.6834C29.9593 14.9809 29.2493 14.4922 28.4218 14.4922C27.2856 14.4922 26.3643 15.4134 26.3643 16.5497C26.3643 17.6859 27.2856 18.6072 28.4218 18.6072C29.1331 18.6072 29.7593 18.2459 30.1293 17.6984C30.4406 17.7397 30.7456 17.8122 31.0418 17.9159C31.4443 18.0584 32.2818 18.3547 32.8406 19.1334C33.0443 19.4172 33.2706 19.8334 33.3981 20.7722C33.7256 23.1622 32.9331 25.2534 32.5068 26.3759C31.9831 27.7559 31.4893 29.0584 30.2806 30.3734C29.8456 30.8459 28.9406 31.8284 27.3718 32.4972C26.4456 32.8909 25.4593 33.1034 24.4393 33.1272C23.4193 33.1034 22.4331 32.8909 21.5068 32.4972C19.9368 31.8297 19.0318 30.8459 18.5981 30.3734C17.3893 29.0597 16.8943 27.7559 16.3718 26.3759C15.9456 25.2522 15.1531 23.1609 15.4806 20.7722C15.6093 19.8334 15.8356 19.4172 16.0381 19.1334C16.5968 18.3547 17.4343 18.0584 17.8368 17.9159C18.1331 17.8109 18.4381 17.7384 18.7493 17.6984C19.1193 18.2472 19.7456 18.6072 20.4568 18.6072C21.5931 18.6072 22.5143 17.6859 22.5143 16.5497C22.5143 15.4134 21.5931 14.4922 20.4568 14.4922C19.6306 14.4922 18.9193 14.9809 18.5918 15.6834C18.1043 15.7397 17.6256 15.8472 17.1618 16.0122C16.6593 16.1897 15.3256 16.6634 14.3968 17.9559C13.9093 18.6347 13.6256 19.4184 13.4781 20.4984C13.0806 23.3984 14.0268 25.8947 14.4818 27.0947C15.0506 28.5934 15.6381 30.1422 17.1106 31.7434C17.5993 32.2747 18.7456 33.5197 20.7156 34.3572C21.5793 34.7247 22.4856 34.9659 23.4168 35.0772V44.8709L23.4218 44.9659C23.5668 46.4934 24.0768 47.9622 24.8968 49.2147C26.6818 51.9422 29.4243 52.9047 30.5193 53.1922L30.6456 53.2247H38.8943C39.9356 53.1622 40.9543 52.9397 41.9206 52.5634C42.9431 52.1647 43.8806 51.6047 44.7181 50.8972C45.4293 51.3797 46.2868 51.6622 47.2093 51.6622C49.6631 51.6622 51.6581 49.6659 51.6581 47.2134C51.6581 44.7609 49.6618 42.7647 47.2093 42.7647H47.2106ZM47.2106 49.6422C45.8718 49.6422 44.7818 48.5534 44.7818 47.2134C44.7818 45.8734 45.8706 44.7847 47.2106 44.7847C48.5506 44.7847 49.6393 45.8734 49.6393 47.2134C49.6393 48.5534 48.5506 49.6422 47.2106 49.6422Z" fill="#803130"/>
<path d="M40.9655 39.2523C41.343 39.2523 41.9817 38.2911 42.2942 36.4873H39.6367C39.948 38.2898 40.588 39.2523 40.9655 39.2523Z" fill="#803130"/>
<path d="M39.1724 29.5322C38.0411 29.966 37.1049 30.796 36.5361 31.8535H38.4886C38.6336 30.976 38.8624 30.1735 39.1711 29.5322H39.1724Z" fill="#803130"/>
<path d="M39.173 38.9208C38.8505 38.2533 38.6155 37.4083 38.4717 36.4883H36.4805C37.0417 37.5983 38.003 38.472 39.1742 38.9208H39.173Z" fill="#803130"/>
<path d="M38.2997 34.2275C38.2997 33.82 38.316 33.4113 38.3485 33.0088H36.0885C35.991 33.3988 35.9385 33.8075 35.9385 34.2275C35.9385 34.6075 35.9822 34.9775 36.0622 35.3338H38.3385C38.3122 34.9675 38.2985 34.5975 38.2985 34.2275H38.2997Z" fill="#803130"/>
<path d="M42.4351 35.3338C42.4613 34.9863 42.4763 34.6175 42.4763 34.2275C42.4763 33.795 42.4588 33.3888 42.4263 33.0088H39.5051C39.4738 33.3888 39.4551 33.7938 39.4551 34.2275C39.4551 34.6175 39.4701 34.9863 39.4963 35.3338H42.4351Z" fill="#803130"/>
<path d="M43.6311 34.2275C43.6311 34.5975 43.6173 34.9688 43.5911 35.3338H45.8673C45.9473 34.9775 45.9911 34.6075 45.9911 34.2275C45.9911 33.8075 45.9386 33.4 45.8411 33.0088H43.5811C43.6136 33.4113 43.6298 33.8188 43.6298 34.2275H43.6311Z" fill="#803130"/>
<path d="M45.395 31.8535C44.8263 30.796 43.89 29.966 42.7588 29.5322C43.0688 30.1722 43.2963 30.976 43.4413 31.8535H45.3938H45.395Z" fill="#803130"/>
<path d="M45.4523 36.4883H43.461C43.3173 37.4095 43.0823 38.2533 42.7598 38.9208C43.931 38.472 44.891 37.5983 45.4535 36.4883H45.4523Z" fill="#803130"/>
<path d="M40.9672 29.2012C40.9672 29.2012 40.9672 29.2012 40.966 29.2012C40.9647 29.2012 40.966 29.2012 40.9647 29.2012C40.5947 29.2037 39.9747 30.1249 39.6572 31.8537H42.276C41.9585 30.1249 41.3385 29.2037 40.9685 29.2012H40.9672Z" fill="#803130"/>
<path d="M31.9199 33.8302V44.6052C31.9199 45.6189 32.7424 46.4414 33.7562 46.4414H41.2249C41.6062 43.4764 44.1437 41.1777 47.2112 41.1777C48.2224 41.1777 49.1749 41.4289 50.0137 41.8702V23.8489C50.0137 22.8352 49.1912 22.0127 48.1774 22.0127H37.0862C37.0687 24.5302 36.2949 26.5739 35.8837 27.6564C35.2912 29.2189 34.6187 30.9902 32.9387 32.8177C32.7199 33.0552 32.3837 33.4189 31.9224 33.8302H31.9199ZM40.9612 28.0464C40.9612 28.0464 40.9637 28.0464 40.9662 28.0464C40.9687 28.0464 40.9687 28.0464 40.9712 28.0464C44.3774 28.0489 47.1474 30.8202 47.1474 34.2277C47.1474 37.6352 44.3749 40.4089 40.9662 40.4089C37.5574 40.4089 34.7849 37.6364 34.7849 34.2277C34.7849 30.8189 37.5549 28.0489 40.9612 28.0464Z" fill="#803130"/>
</svg>
