<svg width="64" height="64" viewBox="0 0 64 64" fill="none" xmlns="http://www.w3.org/2000/svg">
<path d="M38.3988 30.7949C32.9838 30.7949 28.5938 35.1849 28.5938 40.5999C28.5938 43.1824 29.5937 45.5312 31.2262 47.2824C33.315 50.2937 35.405 53.3049 37.4938 56.3162C37.9313 56.9474 38.865 56.9474 39.3037 56.3162C41.3925 53.3049 43.4825 50.2937 45.5713 47.2824C47.2038 45.5312 48.2038 43.1837 48.2038 40.5999C48.2038 35.1849 43.8138 30.7949 38.3988 30.7949ZM38.3988 45.0299C35.9738 45.0299 34.0075 43.0637 34.0075 40.6387C34.0075 38.2137 35.9738 36.2474 38.3988 36.2474C40.8238 36.2474 42.79 38.2137 42.79 40.6387C42.79 43.0637 40.8238 45.0299 38.3988 45.0299Z" fill="#803130"/>
<path d="M49.8634 13.8339C49.8009 12.6389 49.1009 11.6152 48.2034 11.0977C46.7534 10.2627 44.6584 10.6777 43.2884 12.2489C41.1609 14.0727 39.0334 15.8964 36.9047 17.7202C31.0334 16.4402 25.1622 15.1602 19.2909 13.8802C17.8834 15.0639 16.4747 16.2477 15.0672 17.4314C19.4509 19.9114 23.8347 22.3914 28.2172 24.8702C25.7697 27.1027 23.3222 29.3352 20.8734 31.5677C19.2097 30.9514 17.5459 30.3339 15.8822 29.7177C15.0022 30.5814 14.1222 31.4452 13.2422 32.3089C16.1697 34.4689 19.0972 36.6289 22.0247 38.7877C25.2009 36.1227 28.3772 33.4564 31.5534 30.7914C32.3022 30.1664 33.8384 29.0589 36.0872 28.5652C37.9397 28.1577 39.4947 28.3389 40.4072 28.5177C40.5997 26.8214 40.7909 25.1264 40.9834 23.4302C43.3897 21.2702 45.7959 19.1102 48.2022 16.9514C49.2909 16.2714 49.9272 15.0752 49.8622 13.8314L49.8634 13.8339Z" fill="#803130"/>
</svg>
