<svg width="64" height="64" viewBox="0 0 64 64" fill="none" xmlns="http://www.w3.org/2000/svg">
<path d="M43.501 13.4865C43.501 12.9417 43.0418 12.5 42.4754 12.5H39.5265C38.9601 12.5 38.501 12.9417 38.501 13.4865V16.9212L43.501 20.5V13.485V13.4865Z" fill="#803130"/>
<path d="M43.6749 33.0863C43.7541 33.0863 43.8302 33.091 43.9094 33.0926V26.7835H46.5793C47.4646 26.7835 47.8389 25.6362 47.1291 25.0981L30.0506 12.1846C29.7244 11.9385 29.2786 11.9385 28.9525 12.1846L11.8739 25.0981C11.1625 25.6362 11.5368 26.7835 12.4237 26.7835H15.0936V44.9456C15.0936 45.8041 15.7785 46.5 16.6235 46.5H20.4939V34.5918H28.6185V46.5H34.0624C33.7471 45.5074 33.5747 44.4501 33.5747 43.3517C33.5747 37.6912 38.1068 33.0879 43.6765 33.0879L43.6749 33.0863Z" fill="#803130"/>
<path d="M44.0002 34.5C39.3059 34.5 35.501 38.4164 35.501 43.25C35.501 48.0836 39.3059 52 44.0002 52C48.6945 52 52.501 48.0836 52.501 43.25C52.501 38.4164 48.6961 34.5 44.0002 34.5ZM48.9293 41.314L43.3856 46.9169C43.1633 47.141 42.8699 47.265 42.5595 47.265C42.2491 47.265 41.9511 47.1394 41.7287 46.9137L39.0665 44.1973C38.6048 43.7268 38.6017 42.956 39.0603 42.4807C39.2827 42.2486 39.5807 42.1215 39.8973 42.1215C40.2138 42.1215 40.5057 42.2471 40.7281 42.4728L42.5641 44.3467L47.2785 39.5831C47.5009 39.359 47.7927 39.235 48.1047 39.235C48.4166 39.235 48.7223 39.3638 48.9463 39.599C49.4018 40.0758 49.3941 40.8467 48.9308 41.3156L48.9293 41.314Z" fill="#803130"/>
</svg>
