<svg width="65" height="64" viewBox="0 0 65 64" fill="none" xmlns="http://www.w3.org/2000/svg">
<path d="M40.2338 34.7502C39.32 34.5539 38.4375 35.2027 37.6638 35.7727C37.6175 35.8064 37.5738 35.8402 37.5313 35.8727C36.6438 34.0227 35.9438 32.6264 35.525 31.8302C35.325 31.4489 34.855 30.5564 33.8525 29.8489C33.1775 29.3727 32.3863 29.0652 31.5663 28.9627L31.4688 28.9502H21.9975L21.9 28.9627C21.08 29.0664 20.29 29.3727 19.6138 29.8489C18.6113 30.5564 18.1413 31.4489 17.9413 31.8302C17.5225 32.6264 16.8225 34.0227 15.935 35.8727C15.8925 35.8402 15.85 35.8064 15.8025 35.7727C15.0275 35.2027 14.1463 34.5539 13.2325 34.7502C12.425 34.9239 12.0288 35.6627 12.0013 35.7164C11.6025 36.4889 11.8375 37.4602 12.4113 37.9352C12.825 38.2777 13.4575 38.3014 14.7225 38.3502C14.7363 38.3502 14.7488 38.3502 14.7625 38.3514C14.5863 38.7289 14.4063 39.1177 14.2213 39.5177C13.3688 40.4527 12.8525 41.6714 12.8525 43.0039C12.8525 44.8952 13.8913 46.5552 15.455 47.5039C15.455 47.5239 15.4525 47.5427 15.4525 47.5627V50.2852C15.4525 51.4002 16.4063 52.3039 17.5813 52.3039H19.4188C20.595 52.3039 21.5475 51.4002 21.5475 50.2852V48.3439H31.9163V50.2852C31.9163 51.4002 32.87 52.3039 34.045 52.3039H35.8825C37.0588 52.3039 38.0113 51.4002 38.0113 50.2852V47.5627C38.0113 47.5427 38.0088 47.5239 38.0088 47.5039C39.5738 46.5552 40.6113 44.8952 40.6113 43.0039C40.6113 41.6714 40.095 40.4527 39.2425 39.5177C39.0575 39.1177 38.8775 38.7289 38.7013 38.3514C38.715 38.3514 38.7275 38.3514 38.7413 38.3502C40.0063 38.3014 40.6388 38.2777 41.0525 37.9352C41.6263 37.4602 41.8625 36.4877 41.4625 35.7164C41.435 35.6627 41.0375 34.9239 40.2313 34.7502H40.2338ZM18.7813 45.2952C17.4463 45.2952 16.3638 44.2689 16.3638 43.0039C16.3638 41.7389 17.4463 40.7127 18.7813 40.7127C20.1163 40.7127 21.1988 41.7389 21.1988 43.0039C21.1988 44.2689 20.1163 45.2952 18.7813 45.2952ZM26.7325 37.6652H18.485C18.4338 37.6652 18.3825 37.6677 18.3313 37.6689C19.345 35.5389 20.1413 33.9477 20.595 33.0852C20.7188 32.8502 20.9488 32.4114 21.385 32.1039C21.6888 31.8902 21.9888 31.7989 22.21 31.7602H31.2575C31.4775 31.7977 31.7788 31.8889 32.0825 32.1039C32.5188 32.4114 32.7488 32.8489 32.8725 33.0852C33.3263 33.9489 34.1213 35.5402 35.1363 37.6689C35.085 37.6677 35.0338 37.6652 34.9825 37.6652H26.735H26.7325ZM34.6838 45.2952C33.3488 45.2952 32.2663 44.2689 32.2663 43.0039C32.2663 41.7389 33.3488 40.7127 34.6838 40.7127C36.0188 40.7127 37.1013 41.7389 37.1013 43.0039C37.1013 44.2689 36.0188 45.2952 34.6838 45.2952Z" fill="#803130"/>
<path d="M52.5164 13.8691H41.1089C40.2527 13.8691 39.5914 14.6216 39.7014 15.4704L40.7739 23.7879C40.8902 24.6891 41.6577 25.3641 42.5664 25.3641H44.3189V52.4866H49.3052V25.3641H51.0577C51.9664 25.3641 52.7339 24.6891 52.8502 23.7879L53.9227 15.4704C54.0327 14.6216 53.3714 13.8691 52.5152 13.8691H52.5164Z" fill="#803130"/>
<path d="M50.0061 9.61961C50.0061 8.62461 49.1998 7.81836 48.2048 7.81836H45.4223C44.4273 7.81836 43.6211 8.62461 43.6211 9.61961V12.4696H50.0061V9.61961Z" fill="#803130"/>
</svg>
