<svg width="16" height="23" viewBox="0 0 16 23" fill="none" xmlns="http://www.w3.org/2000/svg">
<path d="M8.00019 22.7336C7.73352 22.7336 7.50494 22.6581 7.31446 22.507C7.12398 22.3558 6.98112 22.1575 6.88588 21.9119C6.52397 20.8541 6.06681 19.8624 5.51442 18.9369C4.98107 18.0113 4.22867 16.9251 3.25722 15.6785C2.28577 14.4318 1.49527 13.2417 0.885736 12.1084C0.295245 10.975 0 9.60553 0 7.99993C0 5.78988 0.771447 3.91983 2.31434 2.38979C3.87628 0.840869 5.77157 0.0664062 8.00019 0.0664062C10.2288 0.0664062 12.1146 0.840869 13.6575 2.38979C15.2194 3.91983 16.0004 5.78988 16.0004 7.99993C16.0004 9.71886 15.667 11.1545 15.0004 12.3067C14.3527 13.4401 13.6003 14.564 12.7432 15.6785C11.7146 17.0385 10.9336 18.1718 10.4003 19.0785C9.88596 19.9663 9.45737 20.9108 9.11451 21.9119C9.01927 22.1764 8.86688 22.3842 8.65735 22.5353C8.46687 22.6675 8.24782 22.7336 8.00019 22.7336ZM8.00019 10.8333C8.80021 10.8333 9.47642 10.5594 10.0288 10.0116C10.5812 9.46386 10.8574 8.79329 10.8574 7.99993C10.8574 7.20658 10.5812 6.53601 10.0288 5.98822C9.47642 5.44043 8.80021 5.16653 8.00019 5.16653C7.20018 5.16653 6.52397 5.44043 5.97157 5.98822C5.41918 6.53601 5.14298 7.20658 5.14298 7.99993C5.14298 8.79329 5.41918 9.46386 5.97157 10.0116C6.52397 10.5594 7.20018 10.8333 8.00019 10.8333Z" fill="#EDA340"/>
</svg>
