<svg width="24" height="25" viewBox="0 0 24 25" fill="none" xmlns="http://www.w3.org/2000/svg">
<g clip-path="url(#clip0_91_13881)">
<path d="M23.4482 4.54402L12.2905 1.79152C12.0871 1.74137 11.8747 1.74137 11.6718 1.79152L0.560508 4.54402C0.24457 4.65699 0.166289 4.75918 0.00878906 5.04699V5.42199C0.166289 5.70981 0.24457 5.81199 0.560508 5.92496L11.6713 8.67699C11.8747 8.72762 12.0875 8.72762 12.2914 8.67699L22.5946 6.12512V9.61731C22.5946 9.63793 22.7675 9.93606 22.8041 9.97027C23.211 10.349 23.8096 10.1264 24.0004 9.64074V5.04699C23.8429 4.75918 23.7646 4.65699 23.4486 4.54402H23.4482Z" fill="#CE5D5F"/>
<path d="M23.3234 16.248L3.22012 16.2513C1.63059 16.3816 0.180746 17.7462 0.00918381 19.3441C-0.0194099 19.6095 0.0298088 19.917 0.00918381 20.1879C0.0888713 20.411 0.11184 20.6534 0.18309 20.8807C0.58434 22.1557 1.887 23.1715 3.21918 23.2807L23.3225 23.284C23.6834 23.2484 23.8386 23.0693 23.9993 22.766V22.391C23.8386 22.0877 23.6834 21.9087 23.3225 21.873L3.31762 21.8698C0.773246 21.5182 0.810278 17.9576 3.35934 17.6576L23.322 17.659C23.6829 17.6234 23.8381 17.4443 23.9989 17.141V16.766C23.8381 16.4627 23.6829 16.2837 23.322 16.248H23.3234Z" fill="#CE5D5F"/>
<path d="M12.2145 10.1553L11.885 10.1581L3.57031 8.14062V13.5978C3.57031 14.2859 4.12813 14.8438 4.81625 14.8438H19.1933C19.8814 14.8438 20.4392 14.2859 20.4392 13.5978V8.14062L12.215 10.1553H12.2145Z" fill="#CE5D5F"/>
<path d="M3.00629 19.2725C2.7691 19.5275 2.75691 19.9681 2.98754 20.2311C3.02222 20.2705 3.33629 20.4688 3.35925 20.4688H22.5939V19.0625H3.35925C3.33863 19.0625 3.0405 19.2359 3.00675 19.272L3.00629 19.2725Z" fill="#CE5D5F"/>
</g>
<defs>
<clipPath id="clip0_91_13881">
<rect width="24" height="24" fill="white" transform="translate(0 0.5)"/>
</clipPath>
</defs>
</svg>
