<svg width="160" height="160" viewBox="0 0 160 160" fill="none" xmlns="http://www.w3.org/2000/svg">
<path d="M136 85.6667V84.7506C136 84.5664 135.825 84.4173 135.609 84.4173H133.321V73.627H125.817V67.907L120 64L114.183 67.907V73.627H106.679V84.4173H104.391C104.175 84.4173 104 84.5664 104 84.7506V85.6667C104 85.8509 104.175 86 104.391 86H135.608C135.824 86 135.999 85.8509 135.999 85.6667H136ZM112.432 82.5983H108.742V79.4524H112.432V82.5983ZM112.432 78.4501H108.742V75.3042H112.432V78.4501ZM120.001 67.5168C121.141 67.5168 122.067 68.3045 122.067 69.2776C122.067 70.2507 121.143 71.0384 120.001 71.0384C118.86 71.0384 117.937 70.2507 117.937 69.2776C117.937 68.3045 118.861 67.5168 120.001 67.5168ZM123.15 84.4173H116.851V79.0718C116.851 77.5885 118.262 76.3864 120.001 76.3864C121.741 76.3864 123.151 77.5885 123.151 79.0718V84.4173H123.15ZM131.259 82.5983H127.569V79.4524H131.259V82.5983ZM131.259 78.4501H127.569V75.3042H131.259V78.4501Z" fill="#4B3C37"/>
<path d="M88.2863 86.1875H105.368V77H92.2769C91.8269 77 91.4082 77.2344 91.1769 77.6219L87.1863 84.2375C86.6707 85.0938 87.2863 86.1875 88.2863 86.1875Z" fill="#4B3C37"/>
<path d="M132.009 126.208H124.403V97.0234H130.325L124.403 85.2391H95.125V78.3453H100.447C93.6312 71.6328 86.8156 64.9203 80 58.2109C73.1844 64.9234 66.3688 71.6359 59.5531 78.3453H64.875V85.2391H35.5969L29.675 97.0234H35.5969V126.208H27.9906C26.925 126.208 26.0625 127.07 26.0625 128.136C26.0625 129.202 26.925 130.064 27.9906 130.064H132.009C133.075 130.064 133.938 129.202 133.938 128.136C133.938 127.07 133.075 126.208 132.009 126.208ZM47.3063 115.336H40.0781V108.108H47.3063V115.336ZM47.3063 104.708H40.0781V97.4797H47.3063V104.708ZM58.7875 115.336H51.5594V108.108H58.7875V115.336ZM58.7875 104.708H51.5594V97.4797H58.7875V104.708ZM80 74.2547C83.3969 74.2547 86.15 77.0078 86.15 80.4047C86.15 83.8016 83.3969 86.5547 80 86.5547C76.6031 86.5547 73.85 83.8016 73.85 80.4047C73.85 77.0078 76.6031 74.2547 80 74.2547ZM83.6125 94.1391V101.367H76.3844V94.1391H83.6125ZM66.1813 94.1391H73.4094V101.367H66.1813V94.1391ZM87.3406 126.208H72.6562V115.055C72.6562 110.998 75.9437 107.714 79.9969 107.714C84.0531 107.714 87.3375 111.002 87.3375 115.055V126.208H87.3406ZM93.8188 101.367H86.5906V94.1391H93.8188V101.367ZM108.441 115.336H101.213V108.108H108.441V115.336ZM108.441 104.708H101.213V97.4797H108.441V104.708ZM119.922 115.336H112.694V108.108H119.922V115.336ZM119.922 104.708H112.694V97.4797H119.922V104.708Z" fill="#4B3C37"/>
<path d="M99.2266 77.8457H94.625V85.7393H124.095L129.514 96.5234H123.903V126.708H132.01C132.799 126.708 133.437 127.346 133.438 128.136C133.438 128.925 132.799 129.564 132.01 129.564H27.9902C27.2009 129.564 26.5625 128.925 26.5625 128.136C26.5626 127.346 27.201 126.708 27.9902 126.708H36.0967V96.5234H30.4863L35.9053 85.7393H65.375V77.8457H60.7734C67.1824 71.5364 73.5911 65.2241 80 58.9121C86.409 65.2213 92.8175 71.5336 99.2266 77.8457ZM79.9971 107.214C75.6679 107.214 72.1563 110.722 72.1562 115.055V126.708H87.3408V126.208H87.8379V115.055C87.8379 110.726 84.3295 107.214 79.9971 107.214ZM39.5781 115.836H47.8066V107.607H39.5781V115.836ZM51.0596 115.836H59.2871V107.607H51.0596V115.836ZM100.713 115.836H108.94V107.607H100.713V115.836ZM112.193 115.836H120.422V107.607H112.193V115.836ZM39.5781 105.208H47.8066V96.9795H39.5781V105.208ZM51.0596 105.208H59.2871V96.9795H51.0596V105.208ZM100.713 105.208H108.94V96.9795H100.713V105.208ZM112.193 105.208H120.422V96.9795H112.193V105.208ZM65.6816 101.867H73.9092V93.6387H65.6816V101.867ZM75.8848 101.867H84.1123V93.6387H75.8848V101.867ZM86.0908 101.867H94.3184V93.6387H86.0908V101.867ZM80 73.7549C76.3271 73.7549 73.3498 76.7315 73.3496 80.4043C73.3496 84.0773 76.327 87.0547 80 87.0547C83.673 87.0547 86.6504 84.0773 86.6504 80.4043C86.6502 76.7315 83.6729 73.7549 80 73.7549Z" stroke="black" stroke-opacity="0.5"/>
<path d="M136 86.1875H153.081C154.081 86.1875 154.7 85.0938 154.181 84.2375L150.191 77.6219C149.959 77.2375 149.541 77 149.091 77H136V86.1875Z" fill="#4B3C37"/>
<path d="M107.365 70.628C107.643 71.0519 108.158 71.1234 108.514 70.7914L120 60.0314L131.486 70.7914C131.842 71.1234 132.357 71.0519 132.635 70.628L133.825 68.8248C134.104 68.4009 134.044 67.7879 133.688 67.4559L120.95 55.5211V51.9991C121.397 51.9582 121.92 51.9531 122.499 52.0247C123.7 52.1753 124.218 52.5431 125.44 52.7474C126.07 52.8521 127.011 52.9339 128.205 52.7474V47.0086C127.024 47.1567 126.077 47.0239 125.389 46.8503C124.225 46.5565 123.753 46.1173 122.598 45.8695C121.983 45.7367 121.425 45.7137 120.95 45.7342V44.9884C120.95 44.4444 120.579 44 120.12 44H119.996C119.539 44 119.166 44.4418 119.166 44.9884V55.4138L106.312 67.4559C105.956 67.7879 105.896 68.4009 106.175 68.8248L107.365 70.628Z" fill="#4B3C37"/>
</svg>
